<?xml version="1.0" encoding="UTF-8" standalone="yes"?>
<svg version="1.2" width="100%" viewBox="0 0 376 376" xml:space="preserve" baseProfile="tiny-ps" xmlns="http://www.w3.org/2000/svg">
  <title>bimi-svg-tiny-12-ps</title>
  <path fill="#FFFDFD" stroke="none" d="&#xA;M234.000000,377.000000 &#xA;&#x9;C206.979111,377.000000 179.958206,377.000000 152.490845,376.654297 &#xA;&#x9;C150.842056,374.940002 149.710251,373.501129 148.426849,372.213379 &#xA;&#x9;C128.566116,352.285980 108.755150,332.307831 88.737793,312.538757 &#xA;&#x9;C85.603355,309.443176 84.451637,306.310486 84.460968,302.014069 &#xA;&#x9;C84.572754,250.548126 84.553627,199.081818 84.515694,147.615662 &#xA;&#x9;C84.507431,136.404312 85.734589,138.192139 75.007942,138.067825 &#xA;&#x9;C68.241302,137.989395 68.240936,138.056564 68.233810,144.786850 &#xA;&#x9;C68.174728,200.581406 68.105156,256.375946 68.119621,312.170471 &#xA;&#x9;C68.119965,313.479492 68.713394,315.137909 69.619202,316.045593 &#xA;&#x9;C88.791748,335.258545 108.054970,354.381012 127.273270,373.548431 &#xA;&#x9;C128.304214,374.576599 129.096588,375.843964 130.000000,377.000000 &#xA;&#x9;C87.027306,377.000000 44.054619,377.000000 1.040963,377.000000 &#xA;&#x9;C1.040963,251.773590 1.040963,126.547150 1.040963,1.000000 &#xA;&#x9;C62.020519,1.000000 123.041603,1.000000 184.614487,1.462782 &#xA;&#x9;C185.166290,57.120987 185.166290,112.316406 185.166290,167.511826 &#xA;&#x9;C184.685760,167.710876 184.205231,167.909927 183.724686,168.108978 &#xA;&#x9;C178.548599,162.834290 173.518692,157.403976 168.136581,152.348633 &#xA;&#x9;C165.318588,149.701721 164.447906,146.851181 164.456238,143.105774 &#xA;&#x9;C164.554153,99.116188 164.521545,55.126308 164.516357,11.136509 &#xA;&#x9;C164.515518,4.001447 164.499756,4.001393 157.241974,3.993791 &#xA;&#x9;C156.575455,3.993093 155.908951,3.992619 155.242432,3.993856 &#xA;&#x9;C148.299103,4.006737 148.286392,4.006838 148.285568,10.865051 &#xA;&#x9;C148.281021,49.022869 148.288437,87.180687 148.266571,125.338501 &#xA;&#x9;C148.265533,127.154709 148.025421,128.970795 147.827011,131.769012 &#xA;&#x9;C141.005554,124.962120 134.937012,119.272766 129.363724,113.133774 &#xA;&#x9;C127.567368,111.155106 126.172211,108.007225 126.130920,105.370148 &#xA;&#x9;C125.851791,87.545319 126.045120,69.713760 125.962860,51.884937 &#xA;&#x9;C125.913445,41.174503 127.571503,42.772961 116.306389,42.407719 &#xA;&#x9;C111.673050,42.257496 109.958382,43.487183 109.974564,48.525738 &#xA;&#x9;C110.153801,104.345551 110.043121,160.166306 110.227295,215.986084 &#xA;&#x9;C110.235870,218.584244 111.647118,221.801285 113.482300,223.675140 &#xA;&#x9;C136.213303,246.885239 159.198151,269.846771 181.922989,293.062805 &#xA;&#x9;C183.753601,294.932983 185.035080,298.192780 185.073257,300.828491 &#xA;&#x9;C185.341187,319.320343 185.215210,337.817871 185.215317,356.313599 &#xA;&#x9;C185.215378,366.778351 185.226364,366.484467 195.450439,366.863678 &#xA;&#x9;C200.360504,367.045807 201.196533,365.197540 201.155365,360.862427 &#xA;&#x9;C200.967087,341.035492 201.175507,321.204773 200.985092,301.377869 &#xA;&#x9;C200.948074,297.523773 202.195312,294.879547 204.863663,292.227264 &#xA;&#x9;C227.080902,270.143677 249.127304,247.888062 271.362183,225.822327 &#xA;&#x9;C275.045898,222.166641 276.758759,218.308350 276.744812,213.039581 &#xA;&#x9;C276.604248,159.885620 276.710968,106.731041 276.620087,53.576859 &#xA;&#x9;C276.599243,41.399601 279.094574,42.693241 265.501801,42.409233 &#xA;&#x9;C261.266785,42.320751 260.135559,43.860603 260.174530,47.934223 &#xA;&#x9;C260.356201,66.928078 260.267120,85.924667 260.233215,104.920204 &#xA;&#x9;C260.230316,106.554138 260.551208,108.787399 259.656097,109.725410 &#xA;&#x9;C253.060257,116.637299 246.193420,123.290573 238.519684,130.911285 &#xA;&#x9;C238.288757,127.571053 238.021149,125.492409 238.019714,123.413574 &#xA;&#x9;C237.994278,86.588799 238.019028,49.763981 237.989334,12.939210 &#xA;&#x9;C237.981415,3.116302 239.081772,4.034526 229.261292,4.000662 &#xA;&#x9;C222.157364,3.976165 222.148560,4.004676 222.148071,11.223465 &#xA;&#x9;C222.145142,54.880009 222.159241,98.536568 222.107529,142.193054 &#xA;&#x9;C222.105026,144.295212 222.287689,147.081635 221.102921,148.382736 &#xA;&#x9;C215.209396,154.854950 208.886398,160.936066 202.714630,167.154877 &#xA;&#x9;C202.143082,166.986069 201.571548,166.817245 201.000000,166.648422 &#xA;&#x9;C201.000000,111.432281 201.000000,56.216141 201.000000,1.000000 &#xA;&#x9;C259.628510,1.000000 318.257019,1.000000 376.942749,1.000000 &#xA;&#x9;C376.942749,126.213631 376.942749,251.427292 376.942749,377.000000 &#xA;&#x9;C336.979828,377.000000 296.958557,377.000000 256.588776,376.688171 &#xA;&#x9;C274.458527,358.079773 292.468262,339.567383 311.028870,321.624908 &#xA;&#x9;C316.246277,316.581268 318.377319,311.937195 318.306030,304.410461 &#xA;&#x9;C317.810791,252.104980 318.068176,199.792587 318.025116,147.482452 &#xA;&#x9;C318.016296,136.749664 319.359344,138.418304 308.700104,138.301880 &#xA;&#x9;C302.120392,138.229996 302.111938,138.299881 302.111603,144.893814 &#xA;&#x9;C302.109100,197.203979 302.075745,249.514206 302.174774,301.824188 &#xA;&#x9;C302.182617,305.957703 301.019470,309.023285 298.034668,311.968018 &#xA;&#x9;C282.385284,327.407074 266.880249,342.993500 251.419250,358.621887 &#xA;&#x9;C245.484451,364.620911 239.799042,370.866669 234.000000,377.000000 &#xA;z"/>
  <path fill="#FD5671" stroke="none" d="&#xA;M200.533142,1.000000 &#xA;&#x9;C201.000000,56.216141 201.000000,111.432281 201.000000,166.648422 &#xA;&#x9;C201.571548,166.817245 202.143082,166.986069 202.714630,167.154877 &#xA;&#x9;C208.886398,160.936066 215.209396,154.854950 221.102921,148.382736 &#xA;&#x9;C222.287689,147.081635 222.105026,144.295212 222.107529,142.193054 &#xA;&#x9;C222.159241,98.536568 222.145142,54.880009 222.148071,11.223465 &#xA;&#x9;C222.148560,4.004676 222.157364,3.976165 229.261292,4.000662 &#xA;&#x9;C239.081772,4.034526 237.981415,3.116302 237.989334,12.939210 &#xA;&#x9;C238.019028,49.763981 237.994278,86.588799 238.019714,123.413574 &#xA;&#x9;C238.021149,125.492409 238.288757,127.571053 238.519684,130.911285 &#xA;&#x9;C246.193420,123.290573 253.060257,116.637299 259.656097,109.725410 &#xA;&#x9;C260.551208,108.787399 260.230316,106.554138 260.233215,104.920204 &#xA;&#x9;C260.267120,85.924667 260.356201,66.928078 260.174530,47.934223 &#xA;&#x9;C260.135559,43.860603 261.266785,42.320751 265.501801,42.409233 &#xA;&#x9;C279.094574,42.693241 276.599243,41.399601 276.620087,53.576859 &#xA;&#x9;C276.710968,106.731041 276.604248,159.885620 276.744812,213.039581 &#xA;&#x9;C276.758759,218.308350 275.045898,222.166641 271.362183,225.822327 &#xA;&#x9;C249.127304,247.888062 227.080902,270.143677 204.863663,292.227264 &#xA;&#x9;C202.195312,294.879547 200.948074,297.523773 200.985092,301.377869 &#xA;&#x9;C201.175507,321.204773 200.967087,341.035492 201.155365,360.862427 &#xA;&#x9;C201.196533,365.197540 200.360504,367.045807 195.450439,366.863678 &#xA;&#x9;C185.226364,366.484467 185.215378,366.778351 185.215317,356.313599 &#xA;&#x9;C185.215210,337.817871 185.341187,319.320343 185.073257,300.828491 &#xA;&#x9;C185.035080,298.192780 183.753601,294.932983 181.922989,293.062805 &#xA;&#x9;C159.198151,269.846771 136.213303,246.885239 113.482300,223.675140 &#xA;&#x9;C111.647118,221.801285 110.235870,218.584244 110.227295,215.986084 &#xA;&#x9;C110.043121,160.166306 110.153801,104.345551 109.974564,48.525738 &#xA;&#x9;C109.958382,43.487183 111.673050,42.257496 116.306389,42.407719 &#xA;&#x9;C127.571503,42.772961 125.913445,41.174503 125.962860,51.884937 &#xA;&#x9;C126.045120,69.713760 125.851791,87.545319 126.130920,105.370148 &#xA;&#x9;C126.172211,108.007225 127.567368,111.155106 129.363724,113.133774 &#xA;&#x9;C134.937012,119.272766 141.005554,124.962120 147.827011,131.769012 &#xA;&#x9;C148.025421,128.970795 148.265533,127.154709 148.266571,125.338501 &#xA;&#x9;C148.288437,87.180687 148.281021,49.022869 148.285568,10.865051 &#xA;&#x9;C148.286392,4.006838 148.299103,4.006737 155.242432,3.993856 &#xA;&#x9;C155.908951,3.992619 156.575455,3.993093 157.241974,3.993791 &#xA;&#x9;C164.499756,4.001393 164.515518,4.001447 164.516357,11.136509 &#xA;&#x9;C164.521545,55.126308 164.554153,99.116188 164.456238,143.105774 &#xA;&#x9;C164.447906,146.851181 165.318588,149.701721 168.136581,152.348633 &#xA;&#x9;C173.518692,157.403976 178.548599,162.834290 183.724686,168.108978 &#xA;&#x9;C184.205231,167.909927 184.685760,167.710876 185.166290,167.511826 &#xA;&#x9;C185.166290,112.316406 185.166290,57.120987 185.083145,1.462782 &#xA;&#x9;C190.022095,1.000000 195.044189,1.000000 200.533142,1.000000 &#xA;M254.151505,189.608307 &#xA;&#x9;C241.809647,201.967804 229.450195,214.309799 217.134171,226.694992 &#xA;&#x9;C211.857101,232.001694 204.627747,236.565216 202.009491,242.985184 &#xA;&#x9;C199.318710,249.582947 201.168427,258.033051 201.035919,265.672638 &#xA;&#x9;C201.021484,266.505005 200.925888,267.357910 201.069504,268.165436 &#xA;&#x9;C201.249466,269.177338 201.637787,270.152191 202.160736,271.888733 &#xA;&#x9;C204.155838,270.040222 205.628189,268.763672 207.002548,267.389160 &#xA;&#x9;C222.309540,252.080399 237.349472,236.491714 253.028152,221.574158 &#xA;&#x9;C258.848267,216.036560 261.667877,210.387375 260.839417,202.401306 &#xA;&#x9;C260.254517,196.762802 260.726288,191.014709 260.726288,183.937286 &#xA;&#x9;C257.866699,186.348434 256.249146,187.712326 254.151505,189.608307 &#xA;M173.970825,179.529251 &#xA;&#x9;C166.201324,171.744186 158.490982,163.898926 150.645630,156.191071 &#xA;&#x9;C142.883911,148.565399 135.564835,140.430984 126.715034,133.819855 &#xA;&#x9;C125.955292,142.406616 125.732399,150.398270 126.092148,158.363602 &#xA;&#x9;C126.199020,160.729950 127.374023,163.581543 129.025070,165.262436 &#xA;&#x9;C146.190918,182.738342 163.549011,200.025452 180.875595,217.343124 &#xA;&#x9;C181.846481,218.313522 183.009079,219.092102 185.241592,220.897186 &#xA;&#x9;C185.241592,215.097916 184.695129,210.602493 185.348328,206.288727 &#xA;&#x9;C187.027542,195.198883 183.668030,186.475922 173.970825,179.529251 &#xA;M233.367096,158.848450 &#xA;&#x9;C226.077286,166.148239 219.272095,174.032623 211.364883,180.587646 &#xA;&#x9;C203.031494,187.495956 199.369644,195.380768 200.935684,206.083878 &#xA;&#x9;C201.564926,210.384430 201.039307,214.853958 201.039307,219.246582 &#xA;&#x9;C201.532013,219.404388 202.024734,219.562195 202.517441,219.720016 &#xA;&#x9;C203.943192,218.467590 205.443542,217.289841 206.783218,215.951279 &#xA;&#x9;C221.849609,200.897247 236.600800,185.510895 252.078262,170.893158 &#xA;&#x9;C258.545837,164.784836 261.971954,158.561630 260.837036,149.601730 &#xA;&#x9;C260.187103,144.470932 260.719330,139.190399 260.719330,133.977295 &#xA;&#x9;C260.056793,133.650391 259.394257,133.323502 258.731750,132.996613 &#xA;&#x9;C250.440933,141.445663 242.150131,149.894714 233.367096,158.848450 &#xA;M127.749374,215.363037 &#xA;&#x9;C146.384308,234.027344 165.019257,252.691666 184.160751,271.863312 &#xA;&#x9;C184.757202,270.251648 185.151306,269.677887 185.155426,269.101349 &#xA;&#x9;C185.210297,261.440460 185.370667,253.773590 185.102142,246.122330 &#xA;&#x9;C185.041412,244.391968 183.789139,242.372177 182.498016,241.066315 &#xA;&#x9;C165.412537,223.785583 148.234726,206.595947 131.029053,189.434631 &#xA;&#x9;C129.881470,188.290024 128.322968,187.557434 125.960091,185.960312 &#xA;&#x9;C125.960091,194.384354 125.868286,201.499908 126.017372,208.610413 &#xA;&#x9;C126.060730,210.678223 126.792671,212.731567 127.749374,215.363037 &#xA;z"/>
  <path fill="#FD5872" stroke="none" d="&#xA;M130.468567,377.000000 &#xA;&#x9;C129.096588,375.843964 128.304214,374.576599 127.273270,373.548431 &#xA;&#x9;C108.054970,354.381012 88.791748,335.258545 69.619202,316.045593 &#xA;&#x9;C68.713394,315.137909 68.119965,313.479492 68.119621,312.170471 &#xA;&#x9;C68.105156,256.375946 68.174728,200.581406 68.233810,144.786850 &#xA;&#x9;C68.240936,138.056564 68.241302,137.989395 75.007942,138.067825 &#xA;&#x9;C85.734589,138.192139 84.507431,136.404312 84.515694,147.615662 &#xA;&#x9;C84.553627,199.081818 84.572754,250.548126 84.460968,302.014069 &#xA;&#x9;C84.451637,306.310486 85.603355,309.443176 88.737793,312.538757 &#xA;&#x9;C108.755150,332.307831 128.566116,352.285980 148.426849,372.213379 &#xA;&#x9;C149.710251,373.501129 150.842056,374.940002 152.022186,376.654297 &#xA;&#x9;C144.979050,377.000000 137.958099,377.000000 130.468567,377.000000 &#xA;z"/>
  <path fill="#FD5872" stroke="none" d="&#xA;M234.468567,377.000000 &#xA;&#x9;C239.799042,370.866669 245.484451,364.620911 251.419250,358.621887 &#xA;&#x9;C266.880249,342.993500 282.385284,327.407074 298.034668,311.968018 &#xA;&#x9;C301.019470,309.023285 302.182617,305.957703 302.174774,301.824188 &#xA;&#x9;C302.075745,249.514206 302.109100,197.203979 302.111603,144.893814 &#xA;&#x9;C302.111938,138.299881 302.120392,138.229996 308.700104,138.301880 &#xA;&#x9;C319.359344,138.418304 318.016296,136.749664 318.025116,147.482452 &#xA;&#x9;C318.068176,199.792587 317.810791,252.104980 318.306030,304.410461 &#xA;&#x9;C318.377319,311.937195 316.246277,316.581268 311.028870,321.624908 &#xA;&#x9;C292.468262,339.567383 274.458527,358.079773 256.120117,376.688171 &#xA;&#x9;C248.979050,377.000000 241.958099,377.000000 234.468567,377.000000 &#xA;z"/>
  <path fill="#FFF5F6" stroke="none" d="&#xA;M254.391541,189.342255 &#xA;&#x9;C256.249146,187.712326 257.866699,186.348434 260.726288,183.937286 &#xA;&#x9;C260.726288,191.014709 260.254517,196.762802 260.839417,202.401306 &#xA;&#x9;C261.667877,210.387375 258.848267,216.036560 253.028152,221.574158 &#xA;&#x9;C237.349472,236.491714 222.309540,252.080399 207.002548,267.389160 &#xA;&#x9;C205.628189,268.763672 204.155838,270.040222 202.160736,271.888733 &#xA;&#x9;C201.637787,270.152191 201.249466,269.177338 201.069504,268.165436 &#xA;&#x9;C200.925888,267.357910 201.021484,266.505005 201.035919,265.672638 &#xA;&#x9;C201.168427,258.033051 199.318710,249.582947 202.009491,242.985184 &#xA;&#x9;C204.627747,236.565216 211.857101,232.001694 217.134171,226.694992 &#xA;&#x9;C229.450195,214.309799 241.809647,201.967804 254.391541,189.342255 &#xA;z"/>
  <path fill="#FFF6F8" stroke="none" d="&#xA;M174.220703,179.779419 &#xA;&#x9;C183.668030,186.475922 187.027542,195.198883 185.348328,206.288727 &#xA;&#x9;C184.695129,210.602493 185.241592,215.097916 185.241592,220.897186 &#xA;&#x9;C183.009079,219.092102 181.846481,218.313522 180.875595,217.343124 &#xA;&#x9;C163.549011,200.025452 146.190918,182.738342 129.025070,165.262436 &#xA;&#x9;C127.374023,163.581543 126.199020,160.729950 126.092148,158.363602 &#xA;&#x9;C125.732399,150.398270 125.955292,142.406616 126.715034,133.819855 &#xA;&#x9;C135.564835,140.430984 142.883911,148.565399 150.645630,156.191071 &#xA;&#x9;C158.490982,163.898926 166.201324,171.744186 174.220703,179.779419 &#xA;z"/>
  <path fill="#FFF6F7" stroke="none" d="&#xA;M233.613220,158.596115 &#xA;&#x9;C242.150131,149.894714 250.440933,141.445663 258.731750,132.996613 &#xA;&#x9;C259.394257,133.323502 260.056793,133.650391 260.719330,133.977295 &#xA;&#x9;C260.719330,139.190399 260.187103,144.470932 260.837036,149.601730 &#xA;&#x9;C261.971954,158.561630 258.545837,164.784836 252.078262,170.893158 &#xA;&#x9;C236.600800,185.510895 221.849609,200.897247 206.783218,215.951279 &#xA;&#x9;C205.443542,217.289841 203.943192,218.467590 202.517441,219.720016 &#xA;&#x9;C202.024734,219.562195 201.532013,219.404388 201.039307,219.246582 &#xA;&#x9;C201.039307,214.853958 201.564926,210.384430 200.935684,206.083878 &#xA;&#x9;C199.369644,195.380768 203.031494,187.495956 211.364883,180.587646 &#xA;&#x9;C219.272095,174.032623 226.077286,166.148239 233.613220,158.596115 &#xA;z"/>
  <path fill="#FFF8F9" stroke="none" d="&#xA;M127.479172,215.077301 &#xA;&#x9;C126.792671,212.731567 126.060730,210.678223 126.017372,208.610413 &#xA;&#x9;C125.868286,201.499908 125.960091,194.384354 125.960091,185.960312 &#xA;&#x9;C128.322968,187.557434 129.881470,188.290024 131.029053,189.434631 &#xA;&#x9;C148.234726,206.595947 165.412537,223.785583 182.498016,241.066315 &#xA;&#x9;C183.789139,242.372177 185.041412,244.391968 185.102142,246.122330 &#xA;&#x9;C185.370667,253.773590 185.210297,261.440460 185.155426,269.101349 &#xA;&#x9;C185.151306,269.677887 184.757202,270.251648 184.160751,271.863312 &#xA;&#x9;C165.019257,252.691666 146.384308,234.027344 127.479172,215.077301 &#xA;z"/>
</svg>