<svg version="1.1" id="Layer_1" xmlns="http://www.w3.org/2000/svg" xmlns:xlink="http://www.w3.org/1999/xlink" x="0px" y="0px"
	 width="100%" viewBox="0 0 376 540" enable-background="new 0 0 376 540" xml:space="preserve">
<path fill="#FFFEFE" opacity="1.000000" stroke="none" 
	d="
M157.000000,541.000000 
	C104.680801,541.000000 52.861610,541.000000 1.021206,541.000000 
	C1.021206,361.063232 1.021206,181.126465 1.021206,1.094849 
	C126.235847,1.094849 251.471786,1.094849 376.853882,1.094849 
	C376.853882,180.999908 376.853882,360.999939 376.853882,541.000000 
	C303.793121,541.000000 230.646561,541.000000 157.000000,541.000000 
M222.858109,356.358246 
	C239.341049,339.849945 255.774933,323.292114 272.351227,306.878113 
	C275.411621,303.847687 276.786377,300.653473 276.777374,296.296631 
	C276.666809,242.806808 276.757965,189.316574 276.666656,135.826675 
	C276.645233,123.289360 279.141693,124.647385 265.311066,124.368095 
	C261.408112,124.289276 260.076904,125.447266 260.133301,129.462585 
	C260.341553,144.290237 259.303589,159.196136 260.491547,173.930923 
	C261.523621,186.731674 258.156311,196.468567 247.832703,204.018295 
	C244.861969,206.190842 242.418198,209.083939 238.697464,212.634735 
	C238.382553,208.984665 238.048996,206.908264 238.047195,204.831573 
	C238.015442,168.338394 238.049301,131.845123 238.008438,95.351952 
	C237.996704,84.872208 239.272308,86.038300 228.722229,85.981171 
	C222.134750,85.945496 222.120056,85.989777 222.119370,92.534233 
	C222.114716,136.359421 222.129913,180.184631 222.076218,224.009750 
	C222.073624,226.118484 222.238602,228.934219 221.038635,230.215302 
	C215.079147,236.577652 208.687744,242.535446 201.511230,249.552109 
	C201.511230,246.372452 201.511215,244.297058 201.511215,242.221664 
	C201.511139,174.400940 201.509018,106.580200 201.513092,38.759468 
	C201.513763,27.734207 201.939392,29.492649 192.126190,29.402412 
	C185.184372,29.338577 185.181519,29.398277 185.181458,36.623608 
	C185.180847,105.444153 185.184082,174.264694 185.166245,243.085236 
	C185.165726,245.105881 184.945435,247.126465 184.827621,249.147079 
	C184.300186,249.391403 183.772736,249.635742 183.245300,249.880081 
	C178.206116,244.623459 173.332458,239.192581 168.058670,234.182938 
	C165.378647,231.637177 164.492905,228.986389 164.500748,225.402466 
	C164.595612,182.077393 164.562302,138.752029 164.562088,95.426750 
	C164.562027,85.947960 164.561493,85.947960 155.084686,85.970848 
	C148.261765,85.987328 148.250809,85.987328 148.250076,92.971535 
	C148.246124,130.797836 148.252548,168.624130 148.234512,206.450439 
	C148.233612,208.327469 148.037384,210.204391 147.932114,212.081375 
	C147.508926,212.252914 147.085754,212.424469 146.662567,212.596024 
	C140.832336,206.761047 134.803543,201.105148 129.286194,194.987976 
	C127.503212,193.011169 126.190315,189.836212 126.150070,187.186752 
	C125.879303,169.360840 126.057343,151.528656 125.990723,133.698883 
	C125.951637,123.236961 127.431587,124.521622 116.657951,124.451134 
	C109.509865,124.404366 109.503090,124.450401 109.502838,131.739334 
	C109.500954,186.895752 109.532166,242.052231 109.431885,297.208466 
	C109.425362,300.796814 110.339401,303.358856 112.952621,305.951782 
	C135.898346,328.719421 158.652847,351.679688 181.572098,374.474182 
	C184.123901,377.012177 185.300781,379.522797 185.264648,383.192352 
	C185.082581,401.687134 185.139297,420.184784 185.198486,438.681183 
	C185.228607,448.096985 183.150162,448.671356 195.134659,448.917969 
	C200.337234,449.025024 201.655716,447.335785 201.601822,442.414062 
	C201.382828,422.420197 201.393997,402.420990 201.652100,382.428040 
	C201.686203,379.786499 203.021500,376.617798 204.805786,374.643768 
	C210.385742,368.470459 216.469482,362.752533 222.858109,356.358246 
M235.242477,456.743134 
	C222.532440,469.461365 209.691452,482.053070 197.199570,494.982086 
	C193.856171,498.442444 192.073914,498.014923 188.926437,494.842682 
	C155.728241,461.382996 122.425339,428.026611 89.009827,394.783966 
	C85.785591,391.576385 84.474571,388.370575 84.486275,383.851959 
	C84.620476,332.032104 84.590050,280.211761 84.555229,228.391571 
	C84.548218,217.959274 85.693283,219.604050 75.426994,219.496078 
	C68.212120,219.420181 68.207611,219.482758 68.207420,226.943909 
	C68.205986,280.763611 68.299294,334.583710 68.069435,388.402435 
	C68.045067,394.107391 69.438095,397.935059 73.620346,402.092926 
	C112.136444,440.384766 150.328018,479.002960 188.622742,517.517578 
	C193.085907,522.006348 193.117767,521.989746 197.664444,517.435181 
	C234.978500,480.056366 272.160858,442.544342 309.729797,405.423553 
	C315.899384,399.327576 320.581604,393.670441 318.097656,384.548462 
	C317.801971,383.462585 318.057281,382.226685 318.057281,381.060303 
	C318.057281,330.739716 318.057312,280.419128 318.057281,230.098541 
	C318.057281,220.227493 318.044159,220.533859 308.368500,220.120041 
	C303.267975,219.901901 301.952209,221.388824 301.970795,226.474625 
	C302.161316,278.627380 302.029022,330.781281 302.182739,382.934296 
	C302.197235,387.851776 300.698822,391.330353 297.224792,394.765442 
	C276.616821,415.142639 256.213440,435.726746 235.242477,456.743134 
z"/>
<path fill="#EA6374" opacity="1.000000" stroke="none" 
	d="
M222.608047,356.608154 
	C216.469482,362.752533 210.385742,368.470459 204.805786,374.643768 
	C203.021500,376.617798 201.686203,379.786499 201.652100,382.428040 
	C201.393997,402.420990 201.382828,422.420197 201.601822,442.414062 
	C201.655716,447.335785 200.337234,449.025024 195.134659,448.917969 
	C183.150162,448.671356 185.228607,448.096985 185.198486,438.681183 
	C185.139297,420.184784 185.082581,401.687134 185.264648,383.192352 
	C185.300781,379.522797 184.123901,377.012177 181.572098,374.474182 
	C158.652847,351.679688 135.898346,328.719421 112.952621,305.951782 
	C110.339401,303.358856 109.425362,300.796814 109.431885,297.208466 
	C109.532166,242.052231 109.500954,186.895752 109.502838,131.739334 
	C109.503090,124.450401 109.509865,124.404366 116.657951,124.451134 
	C127.431587,124.521622 125.951637,123.236961 125.990723,133.698883 
	C126.057343,151.528656 125.879303,169.360840 126.150070,187.186752 
	C126.190315,189.836212 127.503212,193.011169 129.286194,194.987976 
	C134.803543,201.105148 140.832336,206.761047 146.662567,212.596024 
	C147.085754,212.424469 147.508926,212.252914 147.932114,212.081375 
	C148.037384,210.204391 148.233612,208.327469 148.234512,206.450439 
	C148.252548,168.624130 148.246124,130.797836 148.250076,92.971535 
	C148.250809,85.987328 148.261765,85.987328 155.084686,85.970848 
	C164.561493,85.947960 164.562027,85.947960 164.562088,95.426750 
	C164.562302,138.752029 164.595612,182.077393 164.500748,225.402466 
	C164.492905,228.986389 165.378647,231.637177 168.058670,234.182938 
	C173.332458,239.192581 178.206116,244.623459 183.245300,249.880081 
	C183.772736,249.635742 184.300186,249.391403 184.827621,249.147079 
	C184.945435,247.126465 185.165726,245.105881 185.166245,243.085236 
	C185.184082,174.264694 185.180847,105.444153 185.181458,36.623608 
	C185.181519,29.398277 185.184372,29.338577 192.126190,29.402412 
	C201.939392,29.492649 201.513763,27.734207 201.513092,38.759468 
	C201.509018,106.580200 201.511139,174.400940 201.511215,242.221664 
	C201.511215,244.297058 201.511230,246.372452 201.511230,249.552109 
	C208.687744,242.535446 215.079147,236.577652 221.038635,230.215302 
	C222.238602,228.934219 222.073624,226.118484 222.076218,224.009750 
	C222.129913,180.184631 222.114716,136.359421 222.119370,92.534233 
	C222.120056,85.989777 222.134750,85.945496 228.722229,85.981171 
	C239.272308,86.038300 237.996704,84.872208 238.008438,95.351952 
	C238.049301,131.845123 238.015442,168.338394 238.047195,204.831573 
	C238.048996,206.908264 238.382553,208.984665 238.697464,212.634735 
	C242.418198,209.083939 244.861969,206.190842 247.832703,204.018295 
	C258.156311,196.468567 261.523621,186.731674 260.491547,173.930923 
	C259.303589,159.196136 260.341553,144.290237 260.133301,129.462585 
	C260.076904,125.447266 261.408112,124.289276 265.311066,124.368095 
	C279.141693,124.647385 276.645233,123.289360 276.666656,135.826675 
	C276.757965,189.316574 276.666809,242.806808 276.777374,296.296631 
	C276.786377,300.653473 275.411621,303.847687 272.351227,306.878113 
	C255.774933,323.292114 239.341049,339.849945 222.608047,356.608154 
M260.260864,295.244415 
	C260.260864,286.016113 260.260864,276.787811 260.260864,266.644867 
	C258.380768,268.061584 256.867767,268.948944 255.664246,270.147186 
	C241.647354,284.102417 228.165283,298.643372 213.524689,311.906738 
	C203.597168,320.900360 198.697784,330.695892 200.976990,343.995209 
	C201.477417,346.915283 201.050247,349.994293 201.050247,353.000122 
	C201.617035,353.168549 202.183838,353.336945 202.750626,353.505371 
	C205.074341,351.222717 207.424179,348.965942 209.717590,346.653198 
	C226.465485,329.764343 243.202042,312.864227 260.260864,295.244415 
M142.045914,260.454102 
	C155.942993,274.368134 169.840088,288.282166 183.737167,302.196198 
	C184.188202,301.955109 184.639252,301.713989 185.090286,301.472900 
	C185.090286,292.230621 185.183594,282.986298 184.977798,273.748627 
	C184.950607,272.528381 183.551132,271.189911 182.529282,270.162811 
	C165.382065,252.927933 148.205811,235.721832 130.987579,218.557907 
	C129.837723,217.411682 128.300339,216.654221 125.975777,215.047119 
	C125.975777,218.316147 125.952179,220.270462 125.979980,222.224045 
	C126.084061,229.538193 124.268951,237.650803 126.864220,243.941360 
	C129.457825,250.227905 136.470612,254.691269 142.045914,260.454102 
M230.884277,243.384308 
	C224.891068,249.385132 219.401627,256.025787 212.785309,261.235229 
	C203.118835,268.846222 199.049759,277.990387 200.969727,290.116180 
	C201.542023,293.730652 201.058044,297.512329 201.058044,302.532562 
	C203.418289,300.774841 204.545044,300.131927 205.430374,299.247406 
	C222.959000,281.734589 240.468170,264.202240 257.941620,246.634430 
	C258.841461,245.729721 259.982605,244.483383 260.003082,243.377411 
	C260.170135,234.352753 260.097107,225.323639 260.097107,216.295898 
	C259.611481,216.060715 259.125885,215.825531 258.640259,215.590347 
	C249.554825,224.688217 240.469376,233.786102 230.884277,243.384308 
M185.191788,328.040192 
	C184.286377,326.348694 183.718018,324.323853 182.424576,323.016174 
	C165.359100,305.762482 148.204330,288.596985 131.020706,271.460724 
	C129.877228,270.320404 128.320770,269.594177 125.981644,268.018951 
	C125.981644,276.425995 125.669113,283.553497 126.135590,290.629639 
	C126.321968,293.456757 127.528481,296.852600 129.458878,298.828918 
	C146.192520,315.960968 163.191986,332.833466 180.130600,349.764954 
	C181.332275,350.966095 182.678574,352.022552 185.203217,354.240692 
	C185.203217,344.732300 185.203217,336.834198 185.191788,328.040192 
z"/>
<path fill="#EA6475" opacity="1.000000" stroke="none" 
	d="
M235.491882,456.492249 
	C256.213440,435.726746 276.616821,415.142639 297.224792,394.765442 
	C300.698822,391.330353 302.197235,387.851776 302.182739,382.934296 
	C302.029022,330.781281 302.161316,278.627380 301.970795,226.474625 
	C301.952209,221.388824 303.267975,219.901901 308.368500,220.120041 
	C318.044159,220.533859 318.057281,220.227493 318.057281,230.098541 
	C318.057312,280.419128 318.057281,330.739716 318.057281,381.060303 
	C318.057281,382.226685 317.801971,383.462585 318.097656,384.548462 
	C320.581604,393.670441 315.899384,399.327576 309.729797,405.423553 
	C272.160858,442.544342 234.978500,480.056366 197.664444,517.435181 
	C193.117767,521.989746 193.085907,522.006348 188.622742,517.517578 
	C150.328018,479.002960 112.136444,440.384766 73.620346,402.092926 
	C69.438095,397.935059 68.045067,394.107391 68.069435,388.402435 
	C68.299294,334.583710 68.205986,280.763611 68.207420,226.943909 
	C68.207611,219.482758 68.212120,219.420181 75.426994,219.496078 
	C85.693283,219.604050 84.548218,217.959274 84.555229,228.391571 
	C84.590050,280.211761 84.620476,332.032104 84.486275,383.851959 
	C84.474571,388.370575 85.785591,391.576385 89.009827,394.783966 
	C122.425339,428.026611 155.728241,461.382996 188.926437,494.842682 
	C192.073914,498.014923 193.856171,498.442444 197.199570,494.982086 
	C209.691452,482.053070 222.532440,469.461365 235.491882,456.492249 
z"/>
<path fill="#FEF6F7" opacity="1.000000" stroke="none" 
	d="
M260.101501,295.606018 
	C243.202042,312.864227 226.465485,329.764343 209.717590,346.653198 
	C207.424179,348.965942 205.074341,351.222717 202.750626,353.505371 
	C202.183838,353.336945 201.617035,353.168549 201.050247,353.000122 
	C201.050247,349.994293 201.477417,346.915283 200.976990,343.995209 
	C198.697784,330.695892 203.597168,320.900360 213.524689,311.906738 
	C228.165283,298.643372 241.647354,284.102417 255.664246,270.147186 
	C256.867767,268.948944 258.380768,268.061584 260.260864,266.644867 
	C260.260864,276.787811 260.260864,286.016113 260.101501,295.606018 
z"/>
<path fill="#FEF7F8" opacity="1.000000" stroke="none" 
	d="
M141.796021,260.203979 
	C136.470612,254.691269 129.457825,250.227905 126.864220,243.941360 
	C124.268951,237.650803 126.084061,229.538193 125.979980,222.224045 
	C125.952179,220.270462 125.975777,218.316147 125.975777,215.047119 
	C128.300339,216.654221 129.837723,217.411682 130.987579,218.557907 
	C148.205811,235.721832 165.382065,252.927933 182.529282,270.162811 
	C183.551132,271.189911 184.950607,272.528381 184.977798,273.748627 
	C185.183594,282.986298 185.090286,292.230621 185.090286,301.472900 
	C184.639252,301.713989 184.188202,301.955109 183.737167,302.196198 
	C169.840088,288.282166 155.942993,274.368134 141.796021,260.203979 
z"/>
<path fill="#FEF7F8" opacity="1.000000" stroke="none" 
	d="
M231.134109,243.134140 
	C240.469376,233.786102 249.554825,224.688217 258.640259,215.590347 
	C259.125885,215.825531 259.611481,216.060715 260.097107,216.295898 
	C260.097107,225.323639 260.170135,234.352753 260.003082,243.377411 
	C259.982605,244.483383 258.841461,245.729721 257.941620,246.634430 
	C240.468170,264.202240 222.959000,281.734589 205.430374,299.247406 
	C204.545044,300.131927 203.418289,300.774841 201.058044,302.532562 
	C201.058044,297.512329 201.542023,293.730652 200.969727,290.116180 
	C199.049759,277.990387 203.118835,268.846222 212.785309,261.235229 
	C219.401627,256.025787 224.891068,249.385132 231.134109,243.134140 
z"/>
<path fill="#FEF8F9" opacity="1.000000" stroke="none" 
	d="
M185.197510,328.488159 
	C185.203217,336.834198 185.203217,344.732300 185.203217,354.240692 
	C182.678574,352.022552 181.332275,350.966095 180.130600,349.764954 
	C163.191986,332.833466 146.192520,315.960968 129.458878,298.828918 
	C127.528481,296.852600 126.321968,293.456757 126.135590,290.629639 
	C125.669113,283.553497 125.981644,276.425995 125.981644,268.018951 
	C128.320770,269.594177 129.877228,270.320404 131.020706,271.460724 
	C148.204330,288.596985 165.359100,305.762482 182.424576,323.016174 
	C183.718018,324.323853 184.286377,326.348694 185.197510,328.488159 
z"/>
</svg>